<mxfile host="65bd71144e">
    <diagram name="Strona-1" id="mmT8IrmcmCFtYyuDXSxo">
        <mxGraphModel dx="0" dy="766" grid="1" gridSize="10" guides="1" tooltips="1" connect="1" arrows="1" fold="1" page="1" pageScale="1" pageWidth="900" pageHeight="1600" math="0" shadow="0">
            <root>
                <mxCell id="0"/>
                <mxCell id="1" parent="0"/>
            </root>
        </mxGraphModel>
    </diagram>
</mxfile>